<svg width="25" height="25" viewBox="0 0 25 25" fill="none" xmlns="http://www.w3.org/2000/svg">
<rect x="0.738281" y="0.738281" width="23.6506" height="23.6506" rx="8.86898" fill="white"/>
<path d="M13.1021 6V11H19.0098V10.9467C19.0092 10.2966 18.8536 9.65295 18.5518 9.0525C18.25 8.45205 17.8079 7.90657 17.2507 7.44721C16.6935 6.98786 16.0322 6.62362 15.3046 6.37531C14.5769 6.12699 13.7971 5.99946 13.0098 6H13.1021Z" fill="#065143"/>
<path d="M13.0972 17.9961V12H19.0098V12.0649C19.0098 12.8444 18.8546 13.6162 18.553 14.3364C18.2515 15.0565 17.8095 15.7108 17.2523 16.262C16.6952 16.8131 16.0337 17.2503 15.3058 17.5485C14.5778 17.8467 13.7977 18.0001 13.0098 18L13.0972 17.9961Z" fill="#065143"/>
<path d="M12.0098 6V20H7.00977V11.1523C7.00977 9.78616 7.53649 8.47592 8.47413 7.50972C9.41176 6.54352 10.6835 6.00047 12.0098 6Z" fill="#065143"/>
</svg>
