<svg width="489" height="208" viewBox="0 0 489 208" fill="none" xmlns="http://www.w3.org/2000/svg">
<g filter="url(#filter0_d_3480_2927)">
<rect x="72" y="68" width="345" height="64" rx="12" fill="white"/>
<rect x="86" y="80" width="40" height="40" rx="8" fill="#E6FBEC"/>
<path d="M106 110.75C105.76 110.75 105.52 110.72 105.29 110.65C100.1 109.22 96.3398 104.37 96.3398 99.1098V94.7198C96.3398 93.5998 97.1498 92.3898 98.1898 91.9598L103.76 89.6798C105.21 89.0898 106.8 89.0898 108.24 89.6798L113.81 91.9598C114.85 92.3898 115.66 93.5998 115.66 94.7198V99.1098C115.66 104.36 111.89 109.21 106.71 110.65C106.48 110.72 106.24 110.75 106 110.75ZM106 90.7498C105.43 90.7498 104.87 90.8598 104.33 91.0798L98.7599 93.3598C98.2799 93.5598 97.8398 94.2098 97.8398 94.7298V99.1198C97.8398 103.71 101.14 107.95 105.69 109.21C105.89 109.27 106.11 109.27 106.31 109.21C110.86 107.95 114.16 103.71 114.16 99.1198V94.7298C114.16 94.2098 113.72 93.5598 113.24 93.3598L107.67 91.0798C107.13 90.8598 106.57 90.7498 106 90.7498Z" fill="#15C01A"/>
<path d="M143.078 106V95.57H144.73V100.162H149.56V95.57H151.198V106H149.56V101.632H144.73V106H143.078ZM153.205 106V98.426H154.787V106H153.205ZM153.205 97.39V95.57H154.787V97.39H153.205ZM160.291 109.08C159.74 109.08 159.232 108.991 158.765 108.814C158.298 108.637 157.897 108.389 157.561 108.072C157.225 107.764 156.973 107.4 156.805 106.98L158.261 106.378C158.392 106.733 158.63 107.027 158.975 107.26C159.33 107.493 159.764 107.61 160.277 107.61C160.678 107.61 161.038 107.531 161.355 107.372C161.672 107.223 161.924 106.999 162.111 106.7C162.298 106.411 162.391 106.061 162.391 105.65V103.942L162.671 104.264C162.41 104.749 162.046 105.118 161.579 105.37C161.122 105.622 160.604 105.748 160.025 105.748C159.325 105.748 158.695 105.585 158.135 105.258C157.575 104.931 157.132 104.483 156.805 103.914C156.488 103.345 156.329 102.705 156.329 101.996C156.329 101.277 156.488 100.638 156.805 100.078C157.132 99.518 157.57 99.0747 158.121 98.748C158.672 98.4213 159.302 98.258 160.011 98.258C160.59 98.258 161.103 98.384 161.551 98.636C162.008 98.8787 162.382 99.2333 162.671 99.7L162.461 100.092V98.426H163.959V105.65C163.959 106.303 163.8 106.887 163.483 107.4C163.175 107.923 162.746 108.333 162.195 108.632C161.644 108.931 161.01 109.08 160.291 109.08ZM160.207 104.278C160.627 104.278 161 104.18 161.327 103.984C161.654 103.779 161.91 103.508 162.097 103.172C162.293 102.827 162.391 102.439 162.391 102.01C162.391 101.581 162.293 101.193 162.097 100.848C161.901 100.503 161.64 100.232 161.313 100.036C160.986 99.8307 160.618 99.728 160.207 99.728C159.778 99.728 159.395 99.8307 159.059 100.036C158.723 100.232 158.457 100.503 158.261 100.848C158.074 101.184 157.981 101.571 157.981 102.01C157.981 102.43 158.074 102.813 158.261 103.158C158.457 103.503 158.723 103.779 159.059 103.984C159.395 104.18 159.778 104.278 160.207 104.278ZM165.811 106V95.402H167.393V99.91L167.141 99.714C167.327 99.238 167.626 98.8787 168.037 98.636C168.447 98.384 168.923 98.258 169.465 98.258C170.025 98.258 170.519 98.3793 170.949 98.622C171.378 98.8647 171.714 99.2007 171.957 99.63C172.199 100.059 172.321 100.549 172.321 101.1V106H170.753V101.534C170.753 101.151 170.678 100.829 170.529 100.568C170.389 100.297 170.193 100.092 169.941 99.952C169.689 99.8027 169.399 99.728 169.073 99.728C168.755 99.728 168.466 99.8027 168.205 99.952C167.953 100.092 167.752 100.297 167.603 100.568C167.463 100.839 167.393 101.161 167.393 101.534V106H165.811ZM174.014 106V95.402H175.596V106H174.014ZM178.117 109.094C177.931 109.094 177.744 109.075 177.557 109.038C177.38 109.01 177.217 108.963 177.067 108.898V107.54C177.179 107.568 177.315 107.591 177.473 107.61C177.632 107.638 177.786 107.652 177.935 107.652C178.374 107.652 178.696 107.554 178.901 107.358C179.116 107.171 179.307 106.877 179.475 106.476L179.979 105.328L179.951 106.658L176.675 98.426H178.369L180.791 104.74H180.217L182.625 98.426H184.333L180.987 106.826C180.81 107.274 180.586 107.666 180.315 108.002C180.054 108.347 179.741 108.613 179.377 108.8C179.023 108.996 178.603 109.094 178.117 109.094ZM191.517 106.168C190.789 106.168 190.122 105.995 189.515 105.65C188.918 105.305 188.442 104.833 188.087 104.236C187.733 103.639 187.555 102.962 187.555 102.206C187.555 101.441 187.733 100.764 188.087 100.176C188.442 99.5787 188.918 99.112 189.515 98.776C190.113 98.4307 190.78 98.258 191.517 98.258C192.264 98.258 192.931 98.4307 193.519 98.776C194.117 99.112 194.588 99.5787 194.933 100.176C195.288 100.764 195.465 101.441 195.465 102.206C195.465 102.971 195.288 103.653 194.933 104.25C194.579 104.847 194.103 105.319 193.505 105.664C192.908 106 192.245 106.168 191.517 106.168ZM191.517 104.698C191.965 104.698 192.362 104.591 192.707 104.376C193.053 104.161 193.323 103.867 193.519 103.494C193.725 103.111 193.827 102.682 193.827 102.206C193.827 101.73 193.725 101.305 193.519 100.932C193.323 100.559 193.053 100.265 192.707 100.05C192.362 99.8353 191.965 99.728 191.517 99.728C191.079 99.728 190.682 99.8353 190.327 100.05C189.982 100.265 189.707 100.559 189.501 100.932C189.305 101.305 189.207 101.73 189.207 102.206C189.207 102.682 189.305 103.111 189.501 103.494C189.707 103.867 189.982 104.161 190.327 104.376C190.682 104.591 191.079 104.698 191.517 104.698ZM197.01 108.8V98.426H198.522V99.994L198.34 99.63C198.62 99.2007 198.993 98.8647 199.46 98.622C199.927 98.3793 200.459 98.258 201.056 98.258C201.775 98.258 202.419 98.4307 202.988 98.776C203.567 99.1213 204.019 99.5927 204.346 100.19C204.682 100.787 204.85 101.459 204.85 102.206C204.85 102.953 204.682 103.625 204.346 104.222C204.019 104.819 203.571 105.295 203.002 105.65C202.433 105.995 201.784 106.168 201.056 106.168C200.468 106.168 199.931 106.047 199.446 105.804C198.97 105.561 198.601 105.211 198.34 104.754L198.592 104.46V108.8H197.01ZM200.902 104.698C201.35 104.698 201.747 104.591 202.092 104.376C202.437 104.161 202.708 103.867 202.904 103.494C203.109 103.111 203.212 102.682 203.212 102.206C203.212 101.73 203.109 101.305 202.904 100.932C202.708 100.559 202.437 100.265 202.092 100.05C201.747 99.8353 201.35 99.728 200.902 99.728C200.463 99.728 200.067 99.8353 199.712 100.05C199.367 100.265 199.091 100.559 198.886 100.932C198.69 101.305 198.592 101.73 198.592 102.206C198.592 102.682 198.69 103.111 198.886 103.494C199.091 103.867 199.367 104.161 199.712 104.376C200.067 104.591 200.463 104.698 200.902 104.698ZM209.528 106.084C208.735 106.084 208.119 105.86 207.68 105.412C207.241 104.964 207.022 104.334 207.022 103.522V99.854H205.692V98.426H205.902C206.257 98.426 206.532 98.3233 206.728 98.118C206.924 97.9127 207.022 97.6327 207.022 97.278V96.69H208.604V98.426H210.326V99.854H208.604V103.452C208.604 103.713 208.646 103.937 208.73 104.124C208.814 104.301 208.949 104.441 209.136 104.544C209.323 104.637 209.565 104.684 209.864 104.684C209.939 104.684 210.023 104.679 210.116 104.67C210.209 104.661 210.298 104.651 210.382 104.642V106C210.251 106.019 210.107 106.037 209.948 106.056C209.789 106.075 209.649 106.084 209.528 106.084ZM211.926 106V98.426H213.508V106H211.926ZM211.926 97.39V95.57H213.508V97.39H211.926ZM215.358 106V98.426H216.87V100.064L216.674 99.812C216.832 99.2987 217.122 98.9113 217.542 98.65C217.962 98.3887 218.442 98.258 218.984 98.258C219.59 98.258 220.127 98.4213 220.594 98.748C221.07 99.0653 221.387 99.49 221.546 100.022L221.098 100.064C221.322 99.4573 221.662 99.0047 222.12 98.706C222.586 98.4073 223.118 98.258 223.716 98.258C224.238 98.258 224.71 98.3793 225.13 98.622C225.559 98.8647 225.9 99.2007 226.152 99.63C226.404 100.059 226.53 100.549 226.53 101.1V106H224.948V101.534C224.948 101.151 224.878 100.829 224.738 100.568C224.607 100.297 224.42 100.092 224.178 99.952C223.944 99.8027 223.669 99.728 223.352 99.728C223.034 99.728 222.754 99.8027 222.512 99.952C222.269 100.092 222.078 100.297 221.938 100.568C221.798 100.839 221.728 101.161 221.728 101.534V106H220.16V101.534C220.16 101.151 220.09 100.829 219.95 100.568C219.819 100.297 219.632 100.092 219.39 99.952C219.156 99.8027 218.876 99.728 218.55 99.728C218.232 99.728 217.952 99.8027 217.71 99.952C217.467 100.092 217.276 100.297 217.136 100.568C217.005 100.839 216.94 101.161 216.94 101.534V106H215.358ZM228.223 106V98.426H229.805V106H228.223ZM228.223 97.39V95.57H229.805V97.39H228.223ZM230.968 106V104.698L235.42 99.308L235.672 99.854H231.178V98.426H237.072V99.714L232.676 105.118L232.424 104.558H237.086V106H230.968ZM241.8 106.168C241.044 106.168 240.372 105.995 239.784 105.65C239.206 105.295 238.753 104.819 238.426 104.222C238.1 103.615 237.936 102.939 237.936 102.192C237.936 101.427 238.1 100.75 238.426 100.162C238.762 99.574 239.21 99.112 239.77 98.776C240.33 98.4307 240.965 98.258 241.674 98.258C242.244 98.258 242.752 98.356 243.2 98.552C243.648 98.748 244.026 99.0187 244.334 99.364C244.642 99.7 244.876 100.087 245.034 100.526C245.202 100.965 245.286 101.431 245.286 101.926C245.286 102.047 245.282 102.173 245.272 102.304C245.263 102.435 245.244 102.556 245.216 102.668H239.182V101.408H244.32L243.564 101.982C243.658 101.525 243.625 101.119 243.466 100.764C243.317 100.4 243.084 100.115 242.766 99.91C242.458 99.6953 242.094 99.588 241.674 99.588C241.254 99.588 240.881 99.6953 240.554 99.91C240.228 100.115 239.976 100.414 239.798 100.806C239.621 101.189 239.551 101.655 239.588 102.206C239.542 102.719 239.612 103.167 239.798 103.55C239.994 103.933 240.265 104.231 240.61 104.446C240.965 104.661 241.366 104.768 241.814 104.768C242.272 104.768 242.659 104.665 242.976 104.46C243.303 104.255 243.56 103.989 243.746 103.662L245.034 104.292C244.885 104.647 244.652 104.969 244.334 105.258C244.026 105.538 243.653 105.762 243.214 105.93C242.785 106.089 242.314 106.168 241.8 106.168ZM250.33 106.168C249.602 106.168 248.949 105.995 248.37 105.65C247.801 105.295 247.348 104.819 247.012 104.222C246.686 103.625 246.522 102.953 246.522 102.206C246.522 101.459 246.69 100.787 247.026 100.19C247.362 99.5927 247.815 99.1213 248.384 98.776C248.954 98.4307 249.598 98.258 250.316 98.258C250.923 98.258 251.46 98.3793 251.926 98.622C252.393 98.8647 252.762 99.2007 253.032 99.63L252.794 99.994V95.402H254.362V106H252.864V104.46L253.046 104.754C252.785 105.211 252.412 105.561 251.926 105.804C251.441 106.047 250.909 106.168 250.33 106.168ZM250.484 104.698C250.923 104.698 251.315 104.591 251.66 104.376C252.015 104.161 252.29 103.867 252.486 103.494C252.692 103.111 252.794 102.682 252.794 102.206C252.794 101.73 252.692 101.305 252.486 100.932C252.29 100.559 252.015 100.265 251.66 100.05C251.315 99.8353 250.923 99.728 250.484 99.728C250.046 99.728 249.649 99.8353 249.294 100.05C248.94 100.265 248.664 100.559 248.468 100.932C248.272 101.305 248.174 101.73 248.174 102.206C248.174 102.682 248.272 103.111 248.468 103.494C248.664 103.867 248.935 104.161 249.28 104.376C249.635 104.591 250.036 104.698 250.484 104.698ZM260.924 106.168C260.411 106.168 259.958 106.079 259.566 105.902C259.184 105.715 258.885 105.463 258.67 105.146C258.456 104.819 258.348 104.437 258.348 103.998C258.348 103.587 258.437 103.219 258.614 102.892C258.801 102.565 259.086 102.29 259.468 102.066C259.851 101.842 260.332 101.683 260.91 101.59L263.542 101.156V102.402L261.218 102.808C260.798 102.883 260.49 103.018 260.294 103.214C260.098 103.401 260 103.643 260 103.942C260 104.231 260.108 104.469 260.322 104.656C260.546 104.833 260.831 104.922 261.176 104.922C261.606 104.922 261.979 104.829 262.296 104.642C262.623 104.455 262.875 104.208 263.052 103.9C263.23 103.583 263.318 103.233 263.318 102.85V100.904C263.318 100.531 263.178 100.227 262.898 99.994C262.628 99.7513 262.264 99.63 261.806 99.63C261.386 99.63 261.018 99.742 260.7 99.966C260.392 100.181 260.164 100.461 260.014 100.806L258.698 100.148C258.838 99.7747 259.067 99.448 259.384 99.168C259.702 98.8787 260.07 98.6547 260.49 98.496C260.92 98.3373 261.372 98.258 261.848 98.258C262.446 98.258 262.973 98.37 263.43 98.594C263.897 98.818 264.256 99.1307 264.508 99.532C264.77 99.924 264.9 100.381 264.9 100.904V106H263.388V104.628L263.71 104.67C263.533 104.978 263.304 105.244 263.024 105.468C262.754 105.692 262.441 105.865 262.086 105.986C261.741 106.107 261.354 106.168 260.924 106.168ZM266.75 106V98.426H268.262V99.91L268.08 99.714C268.267 99.238 268.566 98.8787 268.976 98.636C269.387 98.384 269.863 98.258 270.404 98.258C270.964 98.258 271.459 98.3793 271.888 98.622C272.318 98.8647 272.654 99.2007 272.896 99.63C273.139 100.059 273.26 100.554 273.26 101.114V106H271.692V101.534C271.692 101.151 271.622 100.829 271.482 100.568C271.342 100.297 271.142 100.092 270.88 99.952C270.628 99.8027 270.339 99.728 270.012 99.728C269.686 99.728 269.392 99.8027 269.13 99.952C268.878 100.092 268.682 100.297 268.542 100.568C268.402 100.839 268.332 101.161 268.332 101.534V106H266.75ZM278.453 106.168C277.725 106.168 277.072 105.995 276.493 105.65C275.924 105.295 275.471 104.819 275.135 104.222C274.809 103.625 274.645 102.953 274.645 102.206C274.645 101.459 274.813 100.787 275.149 100.19C275.485 99.5927 275.938 99.1213 276.507 98.776C277.077 98.4307 277.721 98.258 278.439 98.258C279.046 98.258 279.583 98.3793 280.049 98.622C280.516 98.8647 280.885 99.2007 281.155 99.63L280.917 99.994V95.402H282.485V106H280.987V104.46L281.169 104.754C280.908 105.211 280.535 105.561 280.049 105.804C279.564 106.047 279.032 106.168 278.453 106.168ZM278.607 104.698C279.046 104.698 279.438 104.591 279.783 104.376C280.138 104.161 280.413 103.867 280.609 103.494C280.815 103.111 280.917 102.682 280.917 102.206C280.917 101.73 280.815 101.305 280.609 100.932C280.413 100.559 280.138 100.265 279.783 100.05C279.438 99.8353 279.046 99.728 278.607 99.728C278.169 99.728 277.772 99.8353 277.417 100.05C277.063 100.265 276.787 100.559 276.591 100.932C276.395 101.305 276.297 101.73 276.297 102.206C276.297 102.682 276.395 103.111 276.591 103.494C276.787 103.867 277.058 104.161 277.403 104.376C277.758 104.591 278.159 104.698 278.607 104.698ZM289.579 106.168C288.805 106.168 288.123 105.977 287.535 105.594C286.957 105.211 286.551 104.698 286.317 104.054L287.535 103.48C287.741 103.909 288.021 104.25 288.375 104.502C288.739 104.754 289.141 104.88 289.579 104.88C289.953 104.88 290.256 104.796 290.489 104.628C290.723 104.46 290.839 104.231 290.839 103.942C290.839 103.755 290.788 103.606 290.685 103.494C290.583 103.373 290.452 103.275 290.293 103.2C290.144 103.125 289.99 103.069 289.831 103.032L288.641 102.696C287.988 102.509 287.498 102.229 287.171 101.856C286.854 101.473 286.695 101.03 286.695 100.526C286.695 100.069 286.812 99.672 287.045 99.336C287.279 98.9907 287.601 98.7247 288.011 98.538C288.422 98.3513 288.884 98.258 289.397 98.258C290.088 98.258 290.704 98.4307 291.245 98.776C291.787 99.112 292.169 99.5833 292.393 100.19L291.175 100.764C291.026 100.4 290.788 100.111 290.461 99.896C290.144 99.6813 289.785 99.574 289.383 99.574C289.038 99.574 288.763 99.658 288.557 99.826C288.352 99.9847 288.249 100.195 288.249 100.456C288.249 100.633 288.296 100.783 288.389 100.904C288.483 101.016 288.604 101.109 288.753 101.184C288.903 101.249 289.057 101.305 289.215 101.352L290.447 101.716C291.073 101.893 291.553 102.173 291.889 102.556C292.225 102.929 292.393 103.377 292.393 103.9C292.393 104.348 292.272 104.745 292.029 105.09C291.796 105.426 291.469 105.692 291.049 105.888C290.629 106.075 290.139 106.168 289.579 106.168ZM297.5 106.168C296.744 106.168 296.072 105.995 295.484 105.65C294.905 105.295 294.452 104.819 294.126 104.222C293.799 103.615 293.636 102.939 293.636 102.192C293.636 101.427 293.799 100.75 294.126 100.162C294.462 99.574 294.91 99.112 295.47 98.776C296.03 98.4307 296.664 98.258 297.374 98.258C297.943 98.258 298.452 98.356 298.9 98.552C299.348 98.748 299.726 99.0187 300.034 99.364C300.342 99.7 300.575 100.087 300.734 100.526C300.902 100.965 300.986 101.431 300.986 101.926C300.986 102.047 300.981 102.173 300.972 102.304C300.962 102.435 300.944 102.556 300.916 102.668H294.882V101.408H300.02L299.264 101.982C299.357 101.525 299.324 101.119 299.166 100.764C299.016 100.4 298.783 100.115 298.466 99.91C298.158 99.6953 297.794 99.588 297.374 99.588C296.954 99.588 296.58 99.6953 296.254 99.91C295.927 100.115 295.675 100.414 295.498 100.806C295.32 101.189 295.25 101.655 295.288 102.206C295.241 102.719 295.311 103.167 295.498 103.55C295.694 103.933 295.964 104.231 296.31 104.446C296.664 104.661 297.066 104.768 297.514 104.768C297.971 104.768 298.358 104.665 298.676 104.46C299.002 104.255 299.259 103.989 299.446 103.662L300.734 104.292C300.584 104.647 300.351 104.969 300.034 105.258C299.726 105.538 299.352 105.762 298.914 105.93C298.484 106.089 298.013 106.168 297.5 106.168ZM306.127 106.168C305.371 106.168 304.699 105.995 304.111 105.65C303.533 105.295 303.071 104.819 302.725 104.222C302.389 103.625 302.221 102.948 302.221 102.192C302.221 101.445 302.389 100.773 302.725 100.176C303.061 99.5787 303.523 99.112 304.111 98.776C304.699 98.4307 305.371 98.258 306.127 98.258C306.641 98.258 307.121 98.3513 307.569 98.538C308.017 98.7153 308.405 98.9627 308.731 99.28C309.067 99.5973 309.315 99.966 309.473 100.386L308.087 101.03C307.929 100.638 307.672 100.325 307.317 100.092C306.972 99.8493 306.575 99.728 306.127 99.728C305.698 99.728 305.311 99.8353 304.965 100.05C304.629 100.255 304.363 100.549 304.167 100.932C303.971 101.305 303.873 101.73 303.873 102.206C303.873 102.682 303.971 103.111 304.167 103.494C304.363 103.867 304.629 104.161 304.965 104.376C305.311 104.591 305.698 104.698 306.127 104.698C306.585 104.698 306.981 104.581 307.317 104.348C307.663 104.105 307.919 103.783 308.087 103.382L309.473 104.04C309.324 104.441 309.081 104.805 308.745 105.132C308.419 105.449 308.031 105.701 307.583 105.888C307.135 106.075 306.65 106.168 306.127 106.168ZM313.722 106.168C313.152 106.168 312.653 106.042 312.224 105.79C311.794 105.529 311.458 105.169 311.216 104.712C310.982 104.245 310.866 103.709 310.866 103.102V98.426H312.448V102.962C312.448 103.307 312.518 103.611 312.658 103.872C312.798 104.133 312.994 104.339 313.246 104.488C313.498 104.628 313.787 104.698 314.114 104.698C314.45 104.698 314.744 104.623 314.996 104.474C315.248 104.325 315.444 104.115 315.584 103.844C315.733 103.573 315.808 103.256 315.808 102.892V98.426H317.376V106H315.878V104.516L316.046 104.712C315.868 105.179 315.574 105.538 315.164 105.79C314.753 106.042 314.272 106.168 313.722 106.168ZM319.223 106V98.426H320.735V99.952L320.595 99.728C320.763 99.2333 321.033 98.8787 321.407 98.664C321.78 98.44 322.228 98.328 322.751 98.328H323.213V99.77H322.555C322.032 99.77 321.607 99.9333 321.281 100.26C320.963 100.577 320.805 101.035 320.805 101.632V106H319.223ZM327.851 106.168C327.095 106.168 326.423 105.995 325.835 105.65C325.256 105.295 324.804 104.819 324.477 104.222C324.15 103.615 323.987 102.939 323.987 102.192C323.987 101.427 324.15 100.75 324.477 100.162C324.813 99.574 325.261 99.112 325.821 98.776C326.381 98.4307 327.016 98.258 327.725 98.258C328.294 98.258 328.803 98.356 329.251 98.552C329.699 98.748 330.077 99.0187 330.385 99.364C330.693 99.7 330.926 100.087 331.085 100.526C331.253 100.965 331.337 101.431 331.337 101.926C331.337 102.047 331.332 102.173 331.323 102.304C331.314 102.435 331.295 102.556 331.267 102.668H325.233V101.408H330.371L329.615 101.982C329.708 101.525 329.676 101.119 329.517 100.764C329.368 100.4 329.134 100.115 328.817 99.91C328.509 99.6953 328.145 99.588 327.725 99.588C327.305 99.588 326.932 99.6953 326.605 99.91C326.278 100.115 326.026 100.414 325.849 100.806C325.672 101.189 325.602 101.655 325.639 102.206C325.592 102.719 325.662 103.167 325.849 103.55C326.045 103.933 326.316 104.231 326.661 104.446C327.016 104.661 327.417 104.768 327.865 104.768C328.322 104.768 328.71 104.665 329.027 104.46C329.354 104.255 329.61 103.989 329.797 103.662L331.085 104.292C330.936 104.647 330.702 104.969 330.385 105.258C330.077 105.538 329.704 105.762 329.265 105.93C328.836 106.089 328.364 106.168 327.851 106.168ZM335.328 108.8V98.426H336.84V99.994L336.658 99.63C336.938 99.2007 337.312 98.8647 337.778 98.622C338.245 98.3793 338.777 98.258 339.374 98.258C340.093 98.258 340.737 98.4307 341.306 98.776C341.885 99.1213 342.338 99.5927 342.664 100.19C343 100.787 343.168 101.459 343.168 102.206C343.168 102.953 343 103.625 342.664 104.222C342.338 104.819 341.89 105.295 341.32 105.65C340.751 105.995 340.102 106.168 339.374 106.168C338.786 106.168 338.25 106.047 337.764 105.804C337.288 105.561 336.92 105.211 336.658 104.754L336.91 104.46V108.8H335.328ZM339.22 104.698C339.668 104.698 340.065 104.591 340.41 104.376C340.756 104.161 341.026 103.867 341.222 103.494C341.428 103.111 341.53 102.682 341.53 102.206C341.53 101.73 341.428 101.305 341.222 100.932C341.026 100.559 340.756 100.265 340.41 100.05C340.065 99.8353 339.668 99.728 339.22 99.728C338.782 99.728 338.385 99.8353 338.03 100.05C337.685 100.265 337.41 100.559 337.204 100.932C337.008 101.305 336.91 101.73 336.91 102.206C336.91 102.682 337.008 103.111 337.204 103.494C337.41 103.867 337.685 104.161 338.03 104.376C338.385 104.591 338.782 104.698 339.22 104.698ZM346.975 106.168C346.462 106.168 346.009 106.079 345.617 105.902C345.235 105.715 344.936 105.463 344.721 105.146C344.507 104.819 344.399 104.437 344.399 103.998C344.399 103.587 344.488 103.219 344.665 102.892C344.852 102.565 345.137 102.29 345.519 102.066C345.902 101.842 346.383 101.683 346.961 101.59L349.593 101.156V102.402L347.269 102.808C346.849 102.883 346.541 103.018 346.345 103.214C346.149 103.401 346.051 103.643 346.051 103.942C346.051 104.231 346.159 104.469 346.373 104.656C346.597 104.833 346.882 104.922 347.227 104.922C347.657 104.922 348.03 104.829 348.347 104.642C348.674 104.455 348.926 104.208 349.103 103.9C349.281 103.583 349.369 103.233 349.369 102.85V100.904C349.369 100.531 349.229 100.227 348.949 99.994C348.679 99.7513 348.315 99.63 347.857 99.63C347.437 99.63 347.069 99.742 346.751 99.966C346.443 100.181 346.215 100.461 346.065 100.806L344.749 100.148C344.889 99.7747 345.118 99.448 345.435 99.168C345.753 98.8787 346.121 98.6547 346.541 98.496C346.971 98.3373 347.423 98.258 347.899 98.258C348.497 98.258 349.024 98.37 349.481 98.594C349.948 98.818 350.307 99.1307 350.559 99.532C350.821 99.924 350.951 100.381 350.951 100.904V106H349.439V104.628L349.761 104.67C349.584 104.978 349.355 105.244 349.075 105.468C348.805 105.692 348.492 105.865 348.137 105.986C347.792 106.107 347.405 106.168 346.975 106.168ZM353.473 109.094C353.286 109.094 353.1 109.075 352.913 109.038C352.736 109.01 352.572 108.963 352.423 108.898V107.54C352.535 107.568 352.67 107.591 352.829 107.61C352.988 107.638 353.142 107.652 353.291 107.652C353.73 107.652 354.052 107.554 354.257 107.358C354.472 107.171 354.663 106.877 354.831 106.476L355.335 105.328L355.307 106.658L352.031 98.426H353.725L356.147 104.74H355.573L357.981 98.426H359.689L356.343 106.826C356.166 107.274 355.942 107.666 355.671 108.002C355.41 108.347 355.097 108.613 354.733 108.8C354.378 108.996 353.958 109.094 353.473 109.094ZM360.772 106V98.426H362.284V100.064L362.088 99.812C362.246 99.2987 362.536 98.9113 362.956 98.65C363.376 98.3887 363.856 98.258 364.398 98.258C365.004 98.258 365.541 98.4213 366.008 98.748C366.484 99.0653 366.801 99.49 366.96 100.022L366.512 100.064C366.736 99.4573 367.076 99.0047 367.534 98.706C368 98.4073 368.532 98.258 369.13 98.258C369.652 98.258 370.124 98.3793 370.544 98.622C370.973 98.8647 371.314 99.2007 371.566 99.63C371.818 100.059 371.944 100.549 371.944 101.1V106H370.362V101.534C370.362 101.151 370.292 100.829 370.152 100.568C370.021 100.297 369.834 100.092 369.592 99.952C369.358 99.8027 369.083 99.728 368.766 99.728C368.448 99.728 368.168 99.8027 367.926 99.952C367.683 100.092 367.492 100.297 367.352 100.568C367.212 100.839 367.142 101.161 367.142 101.534V106H365.574V101.534C365.574 101.151 365.504 100.829 365.364 100.568C365.233 100.297 365.046 100.092 364.804 99.952C364.57 99.8027 364.29 99.728 363.964 99.728C363.646 99.728 363.366 99.8027 363.124 99.952C362.881 100.092 362.69 100.297 362.55 100.568C362.419 100.839 362.354 101.161 362.354 101.534V106H360.772ZM377.193 106.168C376.437 106.168 375.765 105.995 375.177 105.65C374.598 105.295 374.146 104.819 373.819 104.222C373.492 103.615 373.329 102.939 373.329 102.192C373.329 101.427 373.492 100.75 373.819 100.162C374.155 99.574 374.603 99.112 375.163 98.776C375.723 98.4307 376.358 98.258 377.067 98.258C377.636 98.258 378.145 98.356 378.593 98.552C379.041 98.748 379.419 99.0187 379.727 99.364C380.035 99.7 380.268 100.087 380.427 100.526C380.595 100.965 380.679 101.431 380.679 101.926C380.679 102.047 380.674 102.173 380.665 102.304C380.656 102.435 380.637 102.556 380.609 102.668H374.575V101.408H379.713L378.957 101.982C379.05 101.525 379.018 101.119 378.859 100.764C378.71 100.4 378.476 100.115 378.159 99.91C377.851 99.6953 377.487 99.588 377.067 99.588C376.647 99.588 376.274 99.6953 375.947 99.91C375.62 100.115 375.368 100.414 375.191 100.806C375.014 101.189 374.944 101.655 374.981 102.206C374.934 102.719 375.004 103.167 375.191 103.55C375.387 103.933 375.658 104.231 376.003 104.446C376.358 104.661 376.759 104.768 377.207 104.768C377.664 104.768 378.052 104.665 378.369 104.46C378.696 104.255 378.952 103.989 379.139 103.662L380.427 104.292C380.278 104.647 380.044 104.969 379.727 105.258C379.419 105.538 379.046 105.762 378.607 105.93C378.178 106.089 377.706 106.168 377.193 106.168ZM382.223 106V98.426H383.735V99.91L383.553 99.714C383.739 99.238 384.038 98.8787 384.449 98.636C384.859 98.384 385.335 98.258 385.877 98.258C386.437 98.258 386.931 98.3793 387.361 98.622C387.79 98.8647 388.126 99.2007 388.369 99.63C388.611 100.059 388.733 100.554 388.733 101.114V106H387.165V101.534C387.165 101.151 387.095 100.829 386.955 100.568C386.815 100.297 386.614 100.092 386.353 99.952C386.101 99.8027 385.811 99.728 385.485 99.728C385.158 99.728 384.864 99.8027 384.603 99.952C384.351 100.092 384.155 100.297 384.015 100.568C383.875 100.839 383.805 101.161 383.805 101.534V106H382.223ZM393.702 106.084C392.909 106.084 392.293 105.86 391.854 105.412C391.415 104.964 391.196 104.334 391.196 103.522V99.854H389.866V98.426H390.076C390.431 98.426 390.706 98.3233 390.902 98.118C391.098 97.9127 391.196 97.6327 391.196 97.278V96.69H392.778V98.426H394.5V99.854H392.778V103.452C392.778 103.713 392.82 103.937 392.904 104.124C392.988 104.301 393.123 104.441 393.31 104.544C393.497 104.637 393.739 104.684 394.038 104.684C394.113 104.684 394.197 104.679 394.29 104.67C394.383 104.661 394.472 104.651 394.556 104.642V106C394.425 106.019 394.281 106.037 394.122 106.056C393.963 106.075 393.823 106.084 393.702 106.084ZM398.9 106.168C398.125 106.168 397.444 105.977 396.856 105.594C396.277 105.211 395.871 104.698 395.638 104.054L396.856 103.48C397.061 103.909 397.341 104.25 397.696 104.502C398.06 104.754 398.461 104.88 398.9 104.88C399.273 104.88 399.576 104.796 399.81 104.628C400.043 104.46 400.16 104.231 400.16 103.942C400.16 103.755 400.108 103.606 400.006 103.494C399.903 103.373 399.772 103.275 399.614 103.2C399.464 103.125 399.31 103.069 399.152 103.032L397.962 102.696C397.308 102.509 396.818 102.229 396.492 101.856C396.174 101.473 396.016 101.03 396.016 100.526C396.016 100.069 396.132 99.672 396.366 99.336C396.599 98.9907 396.921 98.7247 397.332 98.538C397.742 98.3513 398.204 98.258 398.718 98.258C399.408 98.258 400.024 98.4307 400.566 98.776C401.107 99.112 401.49 99.5833 401.714 100.19L400.496 100.764C400.346 100.4 400.108 100.111 399.782 99.896C399.464 99.6813 399.105 99.574 398.704 99.574C398.358 99.574 398.083 99.658 397.878 99.826C397.672 99.9847 397.57 100.195 397.57 100.456C397.57 100.633 397.616 100.783 397.71 100.904C397.803 101.016 397.924 101.109 398.074 101.184C398.223 101.249 398.377 101.305 398.536 101.352L399.768 101.716C400.393 101.893 400.874 102.173 401.21 102.556C401.546 102.929 401.714 103.377 401.714 103.9C401.714 104.348 401.592 104.745 401.35 105.09C401.116 105.426 400.79 105.692 400.37 105.888C399.95 106.075 399.46 106.168 398.9 106.168Z" fill="#1C2634"/>
</g>
<defs>
<filter id="filter0_d_3480_2927" x="0" y="0" width="489" height="208" filterUnits="userSpaceOnUse" color-interpolation-filters="sRGB">
<feFlood flood-opacity="0" result="BackgroundImageFix"/>
<feColorMatrix in="SourceAlpha" type="matrix" values="0 0 0 0 0 0 0 0 0 0 0 0 0 0 0 0 0 0 127 0" result="hardAlpha"/>
<feMorphology radius="8" operator="dilate" in="SourceAlpha" result="effect1_dropShadow_3480_2927"/>
<feOffset dy="4"/>
<feGaussianBlur stdDeviation="32"/>
<feComposite in2="hardAlpha" operator="out"/>
<feColorMatrix type="matrix" values="0 0 0 0 0.0235294 0 0 0 0 0.317647 0 0 0 0 0.262745 0 0 0 0.15 0"/>
<feBlend mode="normal" in2="BackgroundImageFix" result="effect1_dropShadow_3480_2927"/>
<feBlend mode="normal" in="SourceGraphic" in2="effect1_dropShadow_3480_2927" result="shape"/>
</filter>
</defs>
</svg>
