<svg width="491" height="208" viewBox="0 0 491 208" fill="none" xmlns="http://www.w3.org/2000/svg">
<g filter="url(#filter0_d_3480_2935)">
<rect x="72" y="68" width="347" height="64" rx="12" fill="white"/>
<rect x="86" y="80" width="40" height="40" rx="8" fill="#EAF4FE"/>
<path d="M100.089 101.28H103.179V108.48C103.179 110.16 104.089 110.5 105.199 109.24L112.769 100.64C113.699 99.5899 113.309 98.7199 111.899 98.7199H108.809V91.5199C108.809 89.8399 107.899 89.4999 106.789 90.7599L99.2191 99.3599C98.2991 100.42 98.6891 101.28 100.089 101.28Z" stroke="#2A86F2" stroke-width="1.5" stroke-miterlimit="10" stroke-linecap="round" stroke-linejoin="round"/>
<path d="M143.078 106V95.57H149.868V97.04H144.73V100.176H149.308V101.646H144.73V106H143.078ZM153.012 106.168C152.499 106.168 152.046 106.079 151.654 105.902C151.272 105.715 150.973 105.463 150.758 105.146C150.544 104.819 150.436 104.437 150.436 103.998C150.436 103.587 150.525 103.219 150.702 102.892C150.889 102.565 151.174 102.29 151.556 102.066C151.939 101.842 152.42 101.683 152.998 101.59L155.63 101.156V102.402L153.306 102.808C152.886 102.883 152.578 103.018 152.382 103.214C152.186 103.401 152.088 103.643 152.088 103.942C152.088 104.231 152.196 104.469 152.41 104.656C152.634 104.833 152.919 104.922 153.264 104.922C153.694 104.922 154.067 104.829 154.384 104.642C154.711 104.455 154.963 104.208 155.14 103.9C155.318 103.583 155.406 103.233 155.406 102.85V100.904C155.406 100.531 155.266 100.227 154.986 99.994C154.716 99.7513 154.352 99.63 153.894 99.63C153.474 99.63 153.106 99.742 152.788 99.966C152.48 100.181 152.252 100.461 152.102 100.806L150.786 100.148C150.926 99.7747 151.155 99.448 151.472 99.168C151.79 98.8787 152.158 98.6547 152.578 98.496C153.008 98.3373 153.46 98.258 153.936 98.258C154.534 98.258 155.061 98.37 155.518 98.594C155.985 98.818 156.344 99.1307 156.596 99.532C156.858 99.924 156.988 100.381 156.988 100.904V106H155.476V104.628L155.798 104.67C155.621 104.978 155.392 105.244 155.112 105.468C154.842 105.692 154.529 105.865 154.174 105.986C153.829 106.107 153.442 106.168 153.012 106.168ZM161.638 106.168C160.863 106.168 160.182 105.977 159.594 105.594C159.015 105.211 158.609 104.698 158.376 104.054L159.594 103.48C159.799 103.909 160.079 104.25 160.434 104.502C160.798 104.754 161.199 104.88 161.638 104.88C162.011 104.88 162.315 104.796 162.548 104.628C162.781 104.46 162.898 104.231 162.898 103.942C162.898 103.755 162.847 103.606 162.744 103.494C162.641 103.373 162.511 103.275 162.352 103.2C162.203 103.125 162.049 103.069 161.89 103.032L160.7 102.696C160.047 102.509 159.557 102.229 159.23 101.856C158.913 101.473 158.754 101.03 158.754 100.526C158.754 100.069 158.871 99.672 159.104 99.336C159.337 98.9907 159.659 98.7247 160.07 98.538C160.481 98.3513 160.943 98.258 161.456 98.258C162.147 98.258 162.763 98.4307 163.304 98.776C163.845 99.112 164.228 99.5833 164.452 100.19L163.234 100.764C163.085 100.4 162.847 100.111 162.52 99.896C162.203 99.6813 161.843 99.574 161.442 99.574C161.097 99.574 160.821 99.658 160.616 99.826C160.411 99.9847 160.308 100.195 160.308 100.456C160.308 100.633 160.355 100.783 160.448 100.904C160.541 101.016 160.663 101.109 160.812 101.184C160.961 101.249 161.115 101.305 161.274 101.352L162.506 101.716C163.131 101.893 163.612 102.173 163.948 102.556C164.284 102.929 164.452 103.377 164.452 103.9C164.452 104.348 164.331 104.745 164.088 105.09C163.855 105.426 163.528 105.692 163.108 105.888C162.688 106.075 162.198 106.168 161.638 106.168ZM169.278 106.084C168.485 106.084 167.869 105.86 167.43 105.412C166.991 104.964 166.772 104.334 166.772 103.522V99.854H165.442V98.426H165.652C166.007 98.426 166.282 98.3233 166.478 98.118C166.674 97.9127 166.772 97.6327 166.772 97.278V96.69H168.354V98.426H170.076V99.854H168.354V103.452C168.354 103.713 168.396 103.937 168.48 104.124C168.564 104.301 168.699 104.441 168.886 104.544C169.073 104.637 169.315 104.684 169.614 104.684C169.689 104.684 169.773 104.679 169.866 104.67C169.959 104.661 170.048 104.651 170.132 104.642V106C170.001 106.019 169.857 106.037 169.698 106.056C169.539 106.075 169.399 106.084 169.278 106.084ZM176.391 106.168C175.878 106.168 175.425 106.079 175.033 105.902C174.651 105.715 174.352 105.463 174.137 105.146C173.923 104.819 173.815 104.437 173.815 103.998C173.815 103.587 173.904 103.219 174.081 102.892C174.268 102.565 174.553 102.29 174.935 102.066C175.318 101.842 175.799 101.683 176.377 101.59L179.009 101.156V102.402L176.685 102.808C176.265 102.883 175.957 103.018 175.761 103.214C175.565 103.401 175.467 103.643 175.467 103.942C175.467 104.231 175.575 104.469 175.789 104.656C176.013 104.833 176.298 104.922 176.643 104.922C177.073 104.922 177.446 104.829 177.763 104.642C178.09 104.455 178.342 104.208 178.519 103.9C178.697 103.583 178.785 103.233 178.785 102.85V100.904C178.785 100.531 178.645 100.227 178.365 99.994C178.095 99.7513 177.731 99.63 177.273 99.63C176.853 99.63 176.485 99.742 176.167 99.966C175.859 100.181 175.631 100.461 175.481 100.806L174.165 100.148C174.305 99.7747 174.534 99.448 174.851 99.168C175.169 98.8787 175.537 98.6547 175.957 98.496C176.387 98.3373 176.839 98.258 177.315 98.258C177.913 98.258 178.44 98.37 178.897 98.594C179.364 98.818 179.723 99.1307 179.975 99.532C180.237 99.924 180.367 100.381 180.367 100.904V106H178.855V104.628L179.177 104.67C179 104.978 178.771 105.244 178.491 105.468C178.221 105.692 177.908 105.865 177.553 105.986C177.208 106.107 176.821 106.168 176.391 106.168ZM182.217 106V98.426H183.729V99.91L183.547 99.714C183.734 99.238 184.032 98.8787 184.443 98.636C184.854 98.384 185.33 98.258 185.871 98.258C186.431 98.258 186.926 98.3793 187.355 98.622C187.784 98.8647 188.12 99.2007 188.363 99.63C188.606 100.059 188.727 100.554 188.727 101.114V106H187.159V101.534C187.159 101.151 187.089 100.829 186.949 100.568C186.809 100.297 186.608 100.092 186.347 99.952C186.095 99.8027 185.806 99.728 185.479 99.728C185.152 99.728 184.858 99.8027 184.597 99.952C184.345 100.092 184.149 100.297 184.009 100.568C183.869 100.839 183.799 101.161 183.799 101.534V106H182.217ZM193.92 106.168C193.192 106.168 192.539 105.995 191.96 105.65C191.391 105.295 190.938 104.819 190.602 104.222C190.275 103.625 190.112 102.953 190.112 102.206C190.112 101.459 190.28 100.787 190.616 100.19C190.952 99.5927 191.405 99.1213 191.974 98.776C192.543 98.4307 193.187 98.258 193.906 98.258C194.513 98.258 195.049 98.3793 195.516 98.622C195.983 98.8647 196.351 99.2007 196.622 99.63L196.384 99.994V95.402H197.952V106H196.454V104.46L196.636 104.754C196.375 105.211 196.001 105.561 195.516 105.804C195.031 106.047 194.499 106.168 193.92 106.168ZM194.074 104.698C194.513 104.698 194.905 104.591 195.25 104.376C195.605 104.161 195.88 103.867 196.076 103.494C196.281 103.111 196.384 102.682 196.384 102.206C196.384 101.73 196.281 101.305 196.076 100.932C195.88 100.559 195.605 100.265 195.25 100.05C194.905 99.8353 194.513 99.728 194.074 99.728C193.635 99.728 193.239 99.8353 192.884 100.05C192.529 100.265 192.254 100.559 192.058 100.932C191.862 101.305 191.764 101.73 191.764 102.206C191.764 102.682 191.862 103.111 192.058 103.494C192.254 103.867 192.525 104.161 192.87 104.376C193.225 104.591 193.626 104.698 194.074 104.698ZM205.802 106.168C205.046 106.168 204.374 105.995 203.786 105.65C203.208 105.295 202.755 104.819 202.428 104.222C202.102 103.615 201.938 102.939 201.938 102.192C201.938 101.427 202.102 100.75 202.428 100.162C202.764 99.574 203.212 99.112 203.772 98.776C204.332 98.4307 204.967 98.258 205.676 98.258C206.246 98.258 206.754 98.356 207.202 98.552C207.65 98.748 208.028 99.0187 208.336 99.364C208.644 99.7 208.878 100.087 209.036 100.526C209.204 100.965 209.288 101.431 209.288 101.926C209.288 102.047 209.284 102.173 209.274 102.304C209.265 102.435 209.246 102.556 209.218 102.668H203.184V101.408H208.322L207.566 101.982C207.66 101.525 207.627 101.119 207.468 100.764C207.319 100.4 207.086 100.115 206.768 99.91C206.46 99.6953 206.096 99.588 205.676 99.588C205.256 99.588 204.883 99.6953 204.556 99.91C204.23 100.115 203.978 100.414 203.8 100.806C203.623 101.189 203.553 101.655 203.59 102.206C203.544 102.719 203.614 103.167 203.8 103.55C203.996 103.933 204.267 104.231 204.612 104.446C204.967 104.661 205.368 104.768 205.816 104.768C206.274 104.768 206.661 104.665 206.978 104.46C207.305 104.255 207.562 103.989 207.748 103.662L209.036 104.292C208.887 104.647 208.654 104.969 208.336 105.258C208.028 105.538 207.655 105.762 207.216 105.93C206.787 106.089 206.316 106.168 205.802 106.168ZM211.686 106V99.854H210.286V98.426H211.686V98.034C211.686 97.4647 211.803 96.9887 212.036 96.606C212.27 96.214 212.592 95.9153 213.002 95.71C213.422 95.5047 213.903 95.402 214.444 95.402C214.547 95.402 214.664 95.4113 214.794 95.43C214.925 95.4393 215.032 95.4533 215.116 95.472V96.844C215.042 96.8253 214.958 96.816 214.864 96.816C214.771 96.8067 214.696 96.802 214.64 96.802C214.22 96.802 213.884 96.9 213.632 97.096C213.38 97.2827 213.254 97.5953 213.254 98.034V98.426H216.88V99.854H213.254V106H211.686ZM221.612 106V98.426H223.194V106H221.612ZM217.16 106V99.854H215.774V98.426H217.16V98.034C217.16 97.4647 217.277 96.9887 217.51 96.606C217.753 96.214 218.08 95.9153 218.49 95.71C218.91 95.5047 219.386 95.402 219.918 95.402C220.03 95.402 220.152 95.4113 220.282 95.43C220.413 95.4393 220.52 95.4533 220.604 95.472V96.844C220.52 96.8253 220.432 96.816 220.338 96.816C220.254 96.8067 220.18 96.802 220.114 96.802C219.694 96.802 219.358 96.9 219.106 97.096C218.864 97.2827 218.742 97.5953 218.742 98.034V98.426H222.368V99.854H218.742V106H217.16ZM228.458 106.168C227.702 106.168 227.03 105.995 226.442 105.65C225.863 105.295 225.401 104.819 225.056 104.222C224.72 103.625 224.552 102.948 224.552 102.192C224.552 101.445 224.72 100.773 225.056 100.176C225.392 99.5787 225.854 99.112 226.442 98.776C227.03 98.4307 227.702 98.258 228.458 98.258C228.971 98.258 229.452 98.3513 229.9 98.538C230.348 98.7153 230.735 98.9627 231.062 99.28C231.398 99.5973 231.645 99.966 231.804 100.386L230.418 101.03C230.259 100.638 230.002 100.325 229.648 100.092C229.302 99.8493 228.906 99.728 228.458 99.728C228.028 99.728 227.641 99.8353 227.296 100.05C226.96 100.255 226.694 100.549 226.498 100.932C226.302 101.305 226.204 101.73 226.204 102.206C226.204 102.682 226.302 103.111 226.498 103.494C226.694 103.867 226.96 104.161 227.296 104.376C227.641 104.591 228.028 104.698 228.458 104.698C228.915 104.698 229.312 104.581 229.648 104.348C229.993 104.105 230.25 103.783 230.418 103.382L231.804 104.04C231.654 104.441 231.412 104.805 231.076 105.132C230.749 105.449 230.362 105.701 229.914 105.888C229.466 106.075 228.98 106.168 228.458 106.168ZM233.35 106V98.426H234.932V106H233.35ZM233.35 97.39V95.57H234.932V97.39H233.35ZM240.337 106.168C239.581 106.168 238.909 105.995 238.321 105.65C237.743 105.295 237.29 104.819 236.963 104.222C236.637 103.615 236.473 102.939 236.473 102.192C236.473 101.427 236.637 100.75 236.963 100.162C237.299 99.574 237.747 99.112 238.307 98.776C238.867 98.4307 239.502 98.258 240.211 98.258C240.781 98.258 241.289 98.356 241.737 98.552C242.185 98.748 242.563 99.0187 242.871 99.364C243.179 99.7 243.413 100.087 243.571 100.526C243.739 100.965 243.823 101.431 243.823 101.926C243.823 102.047 243.819 102.173 243.809 102.304C243.8 102.435 243.781 102.556 243.753 102.668H237.719V101.408H242.857L242.101 101.982C242.195 101.525 242.162 101.119 242.003 100.764C241.854 100.4 241.621 100.115 241.303 99.91C240.995 99.6953 240.631 99.588 240.211 99.588C239.791 99.588 239.418 99.6953 239.091 99.91C238.765 100.115 238.513 100.414 238.335 100.806C238.158 101.189 238.088 101.655 238.125 102.206C238.079 102.719 238.149 103.167 238.335 103.55C238.531 103.933 238.802 104.231 239.147 104.446C239.502 104.661 239.903 104.768 240.351 104.768C240.809 104.768 241.196 104.665 241.513 104.46C241.84 104.255 242.097 103.989 242.283 103.662L243.571 104.292C243.422 104.647 243.189 104.969 242.871 105.258C242.563 105.538 242.19 105.762 241.751 105.93C241.322 106.089 240.851 106.168 240.337 106.168ZM245.367 106V98.426H246.879V99.91L246.697 99.714C246.884 99.238 247.183 98.8787 247.593 98.636C248.004 98.384 248.48 98.258 249.021 98.258C249.581 98.258 250.076 98.3793 250.505 98.622C250.935 98.8647 251.271 99.2007 251.513 99.63C251.756 100.059 251.877 100.554 251.877 101.114V106H250.309V101.534C250.309 101.151 250.239 100.829 250.099 100.568C249.959 100.297 249.759 100.092 249.497 99.952C249.245 99.8027 248.956 99.728 248.629 99.728C248.303 99.728 248.009 99.8027 247.747 99.952C247.495 100.092 247.299 100.297 247.159 100.568C247.019 100.839 246.949 101.161 246.949 101.534V106H245.367ZM256.846 106.084C256.053 106.084 255.437 105.86 254.998 105.412C254.56 104.964 254.34 104.334 254.34 103.522V99.854H253.01V98.426H253.22C253.575 98.426 253.85 98.3233 254.046 98.118C254.242 97.9127 254.34 97.6327 254.34 97.278V96.69H255.922V98.426H257.644V99.854H255.922V103.452C255.922 103.713 255.964 103.937 256.048 104.124C256.132 104.301 256.268 104.441 256.454 104.544C256.641 104.637 256.884 104.684 257.182 104.684C257.257 104.684 257.341 104.679 257.434 104.67C257.528 104.661 257.616 104.651 257.7 104.642V106C257.57 106.019 257.425 106.037 257.266 106.056C257.108 106.075 256.968 106.084 256.846 106.084ZM263.526 106L260.922 98.426H262.602L264.59 104.46H264.002L266.032 98.426H267.474L269.49 104.46H268.902L270.904 98.426H272.584L269.966 106H268.538L266.494 99.826H267.012L264.968 106H263.526ZM275.663 106.168C275.149 106.168 274.697 106.079 274.305 105.902C273.922 105.715 273.623 105.463 273.409 105.146C273.194 104.819 273.087 104.437 273.087 103.998C273.087 103.587 273.175 103.219 273.353 102.892C273.539 102.565 273.824 102.29 274.207 102.066C274.589 101.842 275.07 101.683 275.649 101.59L278.281 101.156V102.402L275.957 102.808C275.537 102.883 275.229 103.018 275.033 103.214C274.837 103.401 274.739 103.643 274.739 103.942C274.739 104.231 274.846 104.469 275.061 104.656C275.285 104.833 275.569 104.922 275.915 104.922C276.344 104.922 276.717 104.829 277.035 104.642C277.361 104.455 277.613 104.208 277.791 103.9C277.968 103.583 278.057 103.233 278.057 102.85V100.904C278.057 100.531 277.917 100.227 277.637 99.994C277.366 99.7513 277.002 99.63 276.545 99.63C276.125 99.63 275.756 99.742 275.439 99.966C275.131 100.181 274.902 100.461 274.753 100.806L273.437 100.148C273.577 99.7747 273.805 99.448 274.123 99.168C274.44 98.8787 274.809 98.6547 275.229 98.496C275.658 98.3373 276.111 98.258 276.587 98.258C277.184 98.258 277.711 98.37 278.169 98.594C278.635 98.818 278.995 99.1307 279.247 99.532C279.508 99.924 279.639 100.381 279.639 100.904V106H278.127V104.628L278.449 104.67C278.271 104.978 278.043 105.244 277.763 105.468C277.492 105.692 277.179 105.865 276.825 105.986C276.479 106.107 276.092 106.168 275.663 106.168ZM282.16 109.094C281.974 109.094 281.787 109.075 281.6 109.038C281.423 109.01 281.26 108.963 281.11 108.898V107.54C281.222 107.568 281.358 107.591 281.516 107.61C281.675 107.638 281.829 107.652 281.978 107.652C282.417 107.652 282.739 107.554 282.944 107.358C283.159 107.171 283.35 106.877 283.518 106.476L284.022 105.328L283.994 106.658L280.718 98.426H282.412L284.834 104.74H284.26L286.668 98.426H288.376L285.03 106.826C284.853 107.274 284.629 107.666 284.358 108.002C284.097 108.347 283.784 108.613 283.42 108.8C283.066 108.996 282.646 109.094 282.16 109.094ZM295.182 106.084C294.389 106.084 293.773 105.86 293.334 105.412C292.896 104.964 292.676 104.334 292.676 103.522V99.854H291.346V98.426H291.556C291.911 98.426 292.186 98.3233 292.382 98.118C292.578 97.9127 292.676 97.6327 292.676 97.278V96.69H294.258V98.426H295.98V99.854H294.258V103.452C294.258 103.713 294.3 103.937 294.384 104.124C294.468 104.301 294.604 104.441 294.79 104.544C294.977 104.637 295.22 104.684 295.518 104.684C295.593 104.684 295.677 104.679 295.77 104.67C295.864 104.661 295.952 104.651 296.036 104.642V106C295.906 106.019 295.761 106.037 295.602 106.056C295.444 106.075 295.304 106.084 295.182 106.084ZM301.098 106.168C300.37 106.168 299.702 105.995 299.096 105.65C298.498 105.305 298.022 104.833 297.668 104.236C297.313 103.639 297.136 102.962 297.136 102.206C297.136 101.441 297.313 100.764 297.668 100.176C298.022 99.5787 298.498 99.112 299.096 98.776C299.693 98.4307 300.36 98.258 301.098 98.258C301.844 98.258 302.512 98.4307 303.1 98.776C303.697 99.112 304.168 99.5787 304.514 100.176C304.868 100.764 305.046 101.441 305.046 102.206C305.046 102.971 304.868 103.653 304.514 104.25C304.159 104.847 303.683 105.319 303.086 105.664C302.488 106 301.826 106.168 301.098 106.168ZM301.098 104.698C301.546 104.698 301.942 104.591 302.288 104.376C302.633 104.161 302.904 103.867 303.1 103.494C303.305 103.111 303.408 102.682 303.408 102.206C303.408 101.73 303.305 101.305 303.1 100.932C302.904 100.559 302.633 100.265 302.288 100.05C301.942 99.8353 301.546 99.728 301.098 99.728C300.659 99.728 300.262 99.8353 299.908 100.05C299.562 100.265 299.287 100.559 299.082 100.932C298.886 101.305 298.788 101.73 298.788 102.206C298.788 102.682 298.886 103.111 299.082 103.494C299.287 103.867 299.562 104.161 299.908 104.376C300.262 104.591 300.659 104.698 301.098 104.698ZM309.037 106V98.426H310.549V100.064L310.353 99.812C310.512 99.2987 310.801 98.9113 311.221 98.65C311.641 98.3887 312.122 98.258 312.663 98.258C313.27 98.258 313.807 98.4213 314.273 98.748C314.749 99.0653 315.067 99.49 315.225 100.022L314.777 100.064C315.001 99.4573 315.342 99.0047 315.799 98.706C316.266 98.4073 316.798 98.258 317.395 98.258C317.918 98.258 318.389 98.3793 318.809 98.622C319.239 98.8647 319.579 99.2007 319.831 99.63C320.083 100.059 320.209 100.549 320.209 101.1V106H318.627V101.534C318.627 101.151 318.557 100.829 318.417 100.568C318.287 100.297 318.1 100.092 317.857 99.952C317.624 99.8027 317.349 99.728 317.031 99.728C316.714 99.728 316.434 99.8027 316.191 99.952C315.949 100.092 315.757 100.297 315.617 100.568C315.477 100.839 315.407 101.161 315.407 101.534V106H313.839V101.534C313.839 101.151 313.769 100.829 313.629 100.568C313.499 100.297 313.312 100.092 313.069 99.952C312.836 99.8027 312.556 99.728 312.229 99.728C311.912 99.728 311.632 99.8027 311.389 99.952C311.147 100.092 310.955 100.297 310.815 100.568C310.685 100.839 310.619 101.161 310.619 101.534V106H309.037ZM324.171 106.168C323.657 106.168 323.205 106.079 322.813 105.902C322.43 105.715 322.131 105.463 321.917 105.146C321.702 104.819 321.595 104.437 321.595 103.998C321.595 103.587 321.683 103.219 321.861 102.892C322.047 102.565 322.332 102.29 322.715 102.066C323.097 101.842 323.578 101.683 324.157 101.59L326.789 101.156V102.402L324.465 102.808C324.045 102.883 323.737 103.018 323.541 103.214C323.345 103.401 323.247 103.643 323.247 103.942C323.247 104.231 323.354 104.469 323.569 104.656C323.793 104.833 324.077 104.922 324.423 104.922C324.852 104.922 325.225 104.829 325.543 104.642C325.869 104.455 326.121 104.208 326.299 103.9C326.476 103.583 326.565 103.233 326.565 102.85V100.904C326.565 100.531 326.425 100.227 326.145 99.994C325.874 99.7513 325.51 99.63 325.053 99.63C324.633 99.63 324.264 99.742 323.947 99.966C323.639 100.181 323.41 100.461 323.261 100.806L321.945 100.148C322.085 99.7747 322.313 99.448 322.631 99.168C322.948 98.8787 323.317 98.6547 323.737 98.496C324.166 98.3373 324.619 98.258 325.095 98.258C325.692 98.258 326.219 98.37 326.677 98.594C327.143 98.818 327.503 99.1307 327.755 99.532C328.016 99.924 328.147 100.381 328.147 100.904V106H326.635V104.628L326.957 104.67C326.779 104.978 326.551 105.244 326.271 105.468C326 105.692 325.687 105.865 325.333 105.986C324.987 106.107 324.6 106.168 324.171 106.168ZM329.996 106V98.426H331.508V99.91L331.326 99.714C331.513 99.238 331.812 98.8787 332.222 98.636C332.633 98.384 333.109 98.258 333.65 98.258C334.21 98.258 334.705 98.3793 335.134 98.622C335.564 98.8647 335.9 99.2007 336.142 99.63C336.385 100.059 336.506 100.554 336.506 101.114V106H334.938V101.534C334.938 101.151 334.868 100.829 334.728 100.568C334.588 100.297 334.388 100.092 334.126 99.952C333.874 99.8027 333.585 99.728 333.258 99.728C332.932 99.728 332.638 99.8027 332.376 99.952C332.124 100.092 331.928 100.297 331.788 100.568C331.648 100.839 331.578 101.161 331.578 101.534V106H329.996ZM340.467 106.168C339.954 106.168 339.501 106.079 339.109 105.902C338.727 105.715 338.428 105.463 338.213 105.146C337.999 104.819 337.891 104.437 337.891 103.998C337.891 103.587 337.98 103.219 338.157 102.892C338.344 102.565 338.629 102.29 339.011 102.066C339.394 101.842 339.875 101.683 340.453 101.59L343.085 101.156V102.402L340.761 102.808C340.341 102.883 340.033 103.018 339.837 103.214C339.641 103.401 339.543 103.643 339.543 103.942C339.543 104.231 339.651 104.469 339.865 104.656C340.089 104.833 340.374 104.922 340.719 104.922C341.149 104.922 341.522 104.829 341.839 104.642C342.166 104.455 342.418 104.208 342.595 103.9C342.773 103.583 342.861 103.233 342.861 102.85V100.904C342.861 100.531 342.721 100.227 342.441 99.994C342.171 99.7513 341.807 99.63 341.349 99.63C340.929 99.63 340.561 99.742 340.243 99.966C339.935 100.181 339.707 100.461 339.557 100.806L338.241 100.148C338.381 99.7747 338.61 99.448 338.927 99.168C339.245 98.8787 339.613 98.6547 340.033 98.496C340.463 98.3373 340.915 98.258 341.391 98.258C341.989 98.258 342.516 98.37 342.973 98.594C343.44 98.818 343.799 99.1307 344.051 99.532C344.313 99.924 344.443 100.381 344.443 100.904V106H342.931V104.628L343.253 104.67C343.076 104.978 342.847 105.244 342.567 105.468C342.297 105.692 341.984 105.865 341.629 105.986C341.284 106.107 340.897 106.168 340.467 106.168ZM349.947 109.08C349.396 109.08 348.888 108.991 348.421 108.814C347.954 108.637 347.553 108.389 347.217 108.072C346.881 107.764 346.629 107.4 346.461 106.98L347.917 106.378C348.048 106.733 348.286 107.027 348.631 107.26C348.986 107.493 349.42 107.61 349.933 107.61C350.334 107.61 350.694 107.531 351.011 107.372C351.328 107.223 351.58 106.999 351.767 106.7C351.954 106.411 352.047 106.061 352.047 105.65V103.942L352.327 104.264C352.066 104.749 351.702 105.118 351.235 105.37C350.778 105.622 350.26 105.748 349.681 105.748C348.981 105.748 348.351 105.585 347.791 105.258C347.231 104.931 346.788 104.483 346.461 103.914C346.144 103.345 345.985 102.705 345.985 101.996C345.985 101.277 346.144 100.638 346.461 100.078C346.788 99.518 347.226 99.0747 347.777 98.748C348.328 98.4213 348.958 98.258 349.667 98.258C350.246 98.258 350.759 98.384 351.207 98.636C351.664 98.8787 352.038 99.2333 352.327 99.7L352.117 100.092V98.426H353.615V105.65C353.615 106.303 353.456 106.887 353.139 107.4C352.831 107.923 352.402 108.333 351.851 108.632C351.3 108.931 350.666 109.08 349.947 109.08ZM349.863 104.278C350.283 104.278 350.656 104.18 350.983 103.984C351.31 103.779 351.566 103.508 351.753 103.172C351.949 102.827 352.047 102.439 352.047 102.01C352.047 101.581 351.949 101.193 351.753 100.848C351.557 100.503 351.296 100.232 350.969 100.036C350.642 99.8307 350.274 99.728 349.863 99.728C349.434 99.728 349.051 99.8307 348.715 100.036C348.379 100.232 348.113 100.503 347.917 100.848C347.73 101.184 347.637 101.571 347.637 102.01C347.637 102.43 347.73 102.813 347.917 103.158C348.113 103.503 348.379 103.779 348.715 103.984C349.051 104.18 349.434 104.278 349.863 104.278ZM359.023 106.168C358.267 106.168 357.595 105.995 357.007 105.65C356.428 105.295 355.976 104.819 355.649 104.222C355.322 103.615 355.159 102.939 355.159 102.192C355.159 101.427 355.322 100.75 355.649 100.162C355.985 99.574 356.433 99.112 356.993 98.776C357.553 98.4307 358.188 98.258 358.897 98.258C359.466 98.258 359.975 98.356 360.423 98.552C360.871 98.748 361.249 99.0187 361.557 99.364C361.865 99.7 362.098 100.087 362.257 100.526C362.425 100.965 362.509 101.431 362.509 101.926C362.509 102.047 362.504 102.173 362.495 102.304C362.486 102.435 362.467 102.556 362.439 102.668H356.405V101.408H361.543L360.787 101.982C360.88 101.525 360.848 101.119 360.689 100.764C360.54 100.4 360.306 100.115 359.989 99.91C359.681 99.6953 359.317 99.588 358.897 99.588C358.477 99.588 358.104 99.6953 357.777 99.91C357.45 100.115 357.198 100.414 357.021 100.806C356.844 101.189 356.774 101.655 356.811 102.206C356.764 102.719 356.834 103.167 357.021 103.55C357.217 103.933 357.488 104.231 357.833 104.446C358.188 104.661 358.589 104.768 359.037 104.768C359.494 104.768 359.882 104.665 360.199 104.46C360.526 104.255 360.782 103.989 360.969 103.662L362.257 104.292C362.108 104.647 361.874 104.969 361.557 105.258C361.249 105.538 360.876 105.762 360.437 105.93C360.008 106.089 359.536 106.168 359.023 106.168ZM367.354 106V99.854H365.954V98.426H367.354V98.034C367.354 97.4647 367.471 96.9887 367.704 96.606C367.938 96.214 368.26 95.9153 368.67 95.71C369.09 95.5047 369.571 95.402 370.112 95.402C370.215 95.402 370.332 95.4113 370.462 95.43C370.593 95.4393 370.7 95.4533 370.784 95.472V96.844C370.71 96.8253 370.626 96.816 370.532 96.816C370.439 96.8067 370.364 96.802 370.308 96.802C369.888 96.802 369.552 96.9 369.3 97.096C369.048 97.2827 368.922 97.5953 368.922 98.034V98.426H370.658V99.854H368.922V106H367.354ZM374.835 106.168C374.266 106.168 373.766 106.042 373.337 105.79C372.908 105.529 372.572 105.169 372.329 104.712C372.096 104.245 371.979 103.709 371.979 103.102V98.426H373.561V102.962C373.561 103.307 373.631 103.611 373.771 103.872C373.911 104.133 374.107 104.339 374.359 104.488C374.611 104.628 374.9 104.698 375.227 104.698C375.563 104.698 375.857 104.623 376.109 104.474C376.361 104.325 376.557 104.115 376.697 103.844C376.846 103.573 376.921 103.256 376.921 102.892V98.426H378.489V106H376.991V104.516L377.159 104.712C376.982 105.179 376.688 105.538 376.277 105.79C375.866 106.042 375.386 106.168 374.835 106.168ZM380.336 106V98.426H381.848V99.91L381.666 99.714C381.853 99.238 382.151 98.8787 382.562 98.636C382.973 98.384 383.449 98.258 383.99 98.258C384.55 98.258 385.045 98.3793 385.474 98.622C385.903 98.8647 386.239 99.2007 386.482 99.63C386.725 100.059 386.846 100.554 386.846 101.114V106H385.278V101.534C385.278 101.151 385.208 100.829 385.068 100.568C384.928 100.297 384.727 100.092 384.466 99.952C384.214 99.8027 383.925 99.728 383.598 99.728C383.271 99.728 382.977 99.8027 382.716 99.952C382.464 100.092 382.268 100.297 382.128 100.568C381.988 100.839 381.918 101.161 381.918 101.534V106H380.336ZM392.039 106.168C391.311 106.168 390.658 105.995 390.079 105.65C389.51 105.295 389.057 104.819 388.721 104.222C388.395 103.625 388.231 102.953 388.231 102.206C388.231 101.459 388.399 100.787 388.735 100.19C389.071 99.5927 389.524 99.1213 390.093 98.776C390.663 98.4307 391.307 98.258 392.025 98.258C392.632 98.258 393.169 98.3793 393.635 98.622C394.102 98.8647 394.471 99.2007 394.741 99.63L394.503 99.994V95.402H396.071V106H394.573V104.46L394.755 104.754C394.494 105.211 394.121 105.561 393.635 105.804C393.15 106.047 392.618 106.168 392.039 106.168ZM392.193 104.698C392.632 104.698 393.024 104.591 393.369 104.376C393.724 104.161 393.999 103.867 394.195 103.494C394.401 103.111 394.503 102.682 394.503 102.206C394.503 101.73 394.401 101.305 394.195 100.932C393.999 100.559 393.724 100.265 393.369 100.05C393.024 99.8353 392.632 99.728 392.193 99.728C391.755 99.728 391.358 99.8353 391.003 100.05C390.649 100.265 390.373 100.559 390.177 100.932C389.981 101.305 389.883 101.73 389.883 102.206C389.883 102.682 389.981 103.111 390.177 103.494C390.373 103.867 390.644 104.161 390.989 104.376C391.344 104.591 391.745 104.698 392.193 104.698ZM400.718 106.168C399.943 106.168 399.262 105.977 398.674 105.594C398.095 105.211 397.689 104.698 397.456 104.054L398.674 103.48C398.879 103.909 399.159 104.25 399.514 104.502C399.878 104.754 400.279 104.88 400.718 104.88C401.091 104.88 401.395 104.796 401.628 104.628C401.861 104.46 401.978 104.231 401.978 103.942C401.978 103.755 401.927 103.606 401.824 103.494C401.721 103.373 401.591 103.275 401.432 103.2C401.283 103.125 401.129 103.069 400.97 103.032L399.78 102.696C399.127 102.509 398.637 102.229 398.31 101.856C397.993 101.473 397.834 101.03 397.834 100.526C397.834 100.069 397.951 99.672 398.184 99.336C398.417 98.9907 398.739 98.7247 399.15 98.538C399.561 98.3513 400.023 98.258 400.536 98.258C401.227 98.258 401.843 98.4307 402.384 98.776C402.925 99.112 403.308 99.5833 403.532 100.19L402.314 100.764C402.165 100.4 401.927 100.111 401.6 99.896C401.283 99.6813 400.923 99.574 400.522 99.574C400.177 99.574 399.901 99.658 399.696 99.826C399.491 99.9847 399.388 100.195 399.388 100.456C399.388 100.633 399.435 100.783 399.528 100.904C399.621 101.016 399.743 101.109 399.892 101.184C400.041 101.249 400.195 101.305 400.354 101.352L401.586 101.716C402.211 101.893 402.692 102.173 403.028 102.556C403.364 102.929 403.532 103.377 403.532 103.9C403.532 104.348 403.411 104.745 403.168 105.09C402.935 105.426 402.608 105.692 402.188 105.888C401.768 106.075 401.278 106.168 400.718 106.168Z" fill="#1C2634"/>
</g>
<defs>
<filter id="filter0_d_3480_2935" x="0" y="0" width="491" height="208" filterUnits="userSpaceOnUse" color-interpolation-filters="sRGB">
<feFlood flood-opacity="0" result="BackgroundImageFix"/>
<feColorMatrix in="SourceAlpha" type="matrix" values="0 0 0 0 0 0 0 0 0 0 0 0 0 0 0 0 0 0 127 0" result="hardAlpha"/>
<feMorphology radius="8" operator="dilate" in="SourceAlpha" result="effect1_dropShadow_3480_2935"/>
<feOffset dy="4"/>
<feGaussianBlur stdDeviation="32"/>
<feComposite in2="hardAlpha" operator="out"/>
<feColorMatrix type="matrix" values="0 0 0 0 0.0235294 0 0 0 0 0.317647 0 0 0 0 0.262745 0 0 0 0.15 0"/>
<feBlend mode="normal" in2="BackgroundImageFix" result="effect1_dropShadow_3480_2935"/>
<feBlend mode="normal" in="SourceGraphic" in2="effect1_dropShadow_3480_2935" result="shape"/>
</filter>
</defs>
</svg>
