<svg width="168" height="32" viewBox="0 0 168 32" fill="none" xmlns="http://www.w3.org/2000/svg">
<g clip-path="url(#clip0_3480_4616)">
<path d="M14.3192 4.23687e-06V12.4784H26.4928V12.3455C26.4917 10.723 26.171 9.11661 25.5491 7.61808C24.9271 6.11954 24.0161 4.7582 22.868 3.61179C21.7199 2.46538 20.3572 1.55636 18.8577 0.936649C17.3582 0.316934 15.7514 -0.00133945 14.1289 4.23687e-06H14.3192Z" fill="#065143"/>
<path d="M14.3187 27.4442V14.9658H26.4923V15.1008C26.4923 16.723 26.1728 18.3294 25.5519 19.8281C24.9311 21.3268 24.0211 22.6885 22.8739 23.8355C21.7267 24.9824 20.3649 25.8922 18.8661 26.5128C17.3672 27.1334 15.7609 27.4527 14.1387 27.4524L14.3187 27.4442Z" fill="#065143"/>
<path d="M11.7727 0V32H0V11.7768C-1.88437e-07 8.65408 1.2402 5.65924 3.44789 3.45078C5.65558 1.24233 8.64999 0.00108483 11.7727 0Z" fill="#065143"/>
<path d="M36.8105 23.5798V4.28279H48.5541V6.18492H39.1262V12.9664H47.1482V14.841H39.1262V23.5798H36.8105Z" fill="#065143"/>
<path d="M57.0364 23.9106C55.7499 23.9106 54.5921 23.6165 53.5629 23.0284C52.5338 22.4403 51.7159 21.6133 51.1095 20.5474C50.5214 19.4631 50.2273 18.195 50.2273 16.7431C50.2273 15.2912 50.5306 14.0323 51.137 12.9664C51.7435 11.8821 52.5613 11.0459 53.5905 10.4578C54.6381 9.86972 55.8051 9.57567 57.0915 9.57567C58.378 9.57567 59.5358 9.86972 60.565 10.4578C61.5942 11.0459 62.4028 11.8821 62.9909 12.9664C63.5974 14.0323 63.9006 15.2912 63.9006 16.7431C63.9006 18.195 63.5974 19.4631 62.9909 20.5474C62.3844 21.6133 61.5574 22.4403 60.5098 23.0284C59.4807 23.6165 58.3229 23.9106 57.0364 23.9106ZM57.0364 21.9257C57.8266 21.9257 58.5618 21.7328 59.2418 21.3468C59.9217 20.9609 60.4731 20.382 60.8958 19.6101C61.3185 18.8382 61.5298 17.8826 61.5298 16.7431C61.5298 15.6037 61.3185 14.648 60.8958 13.8761C60.4915 13.1043 59.9493 12.5253 59.2693 12.1394C58.5893 11.7535 57.8634 11.5605 57.0915 11.5605C56.3013 11.5605 55.5661 11.7535 54.8862 12.1394C54.2062 12.5253 53.6548 13.1043 53.2321 13.8761C52.8094 14.648 52.5981 15.6037 52.5981 16.7431C52.5981 17.8826 52.8094 18.8382 53.2321 19.6101C53.6548 20.382 54.197 20.9609 54.8586 21.3468C55.5386 21.7328 56.2645 21.9257 57.0364 21.9257Z" fill="#065143"/>
<path d="M72.11 23.9106C70.4927 23.9106 69.2063 23.4235 68.2506 22.4495C67.2949 21.4571 66.8171 19.9409 66.8171 17.9009V9.90647H69.1327V17.6528C69.1327 20.5014 70.2998 21.9257 72.6338 21.9257C73.8283 21.9257 74.8116 21.503 75.5834 20.6576C76.3737 19.7939 76.7688 18.5717 76.7688 16.9912V9.90647H79.0845V23.5798H76.9894L76.824 21.1263C76.4013 21.99 75.7672 22.67 74.9218 23.1662C74.0948 23.6625 73.1575 23.9106 72.11 23.9106Z" fill="#065143"/>
<path d="M82.896 23.5798V9.90647H84.9911L85.1841 12.5253C85.6068 11.6248 86.25 10.9081 87.1138 10.3751C87.9776 9.84215 89.0435 9.57567 90.3116 9.57567V12.0016H89.6775C88.8689 12.0016 88.1246 12.1486 87.4446 12.4426C86.7646 12.7183 86.2225 13.1961 85.8182 13.8761C85.4138 14.5561 85.2117 15.4934 85.2117 16.688V23.5798H82.896Z" fill="#065143"/>
<path d="M94.3166 6.87409C93.8571 6.87409 93.4712 6.72707 93.1587 6.43302C92.8647 6.12059 92.7177 5.73465 92.7177 5.2752C92.7177 4.83413 92.8647 4.46657 93.1587 4.17252C93.4712 3.87847 93.8571 3.73145 94.3166 3.73145C94.7576 3.73145 95.1344 3.87847 95.4468 4.17252C95.7592 4.46657 95.9155 4.83413 95.9155 5.2752C95.9155 5.73465 95.7592 6.12059 95.4468 6.43302C95.1344 6.72707 94.7576 6.87409 94.3166 6.87409ZM93.1587 23.5798V9.90647H95.4744V23.5798H93.1587Z" fill="#065143"/>
<path d="M105.654 23.9106C104.349 23.9106 103.191 23.6165 102.18 23.0284C101.17 22.4219 100.37 21.5857 99.782 20.5198C99.2122 19.4539 98.9274 18.195 98.9274 16.7431C98.9274 15.3096 99.2122 14.0599 99.782 12.994C100.352 11.9097 101.142 11.0735 102.153 10.4854C103.182 9.87891 104.367 9.57567 105.709 9.57567C107.032 9.57567 108.172 9.87891 109.127 10.4854C110.101 11.0735 110.846 11.8545 111.36 12.8286C111.875 13.8026 112.132 14.8502 112.132 15.9712C112.132 16.1734 112.123 16.3756 112.104 16.5777C112.104 16.7799 112.104 17.0096 112.104 17.2669H101.215C101.271 18.3144 101.51 19.1874 101.932 19.8858C102.373 20.5657 102.915 21.0803 103.559 21.4295C104.22 21.7787 104.919 21.9533 105.654 21.9533C106.609 21.9533 107.409 21.7328 108.052 21.2917C108.695 20.8506 109.164 20.2533 109.458 19.4998H111.746C111.379 20.7679 110.671 21.8246 109.623 22.67C108.594 23.497 107.271 23.9106 105.654 23.9106ZM105.654 11.5329C104.551 11.5329 103.568 11.8729 102.704 12.5529C101.859 13.2145 101.372 14.1886 101.243 15.475H109.844C109.789 14.2437 109.366 13.2788 108.576 12.5805C107.786 11.8821 106.812 11.5329 105.654 11.5329Z" fill="#065143"/>
<path d="M115.201 23.5798V9.90647H117.296L117.489 12.5253C117.912 11.6248 118.555 10.9081 119.419 10.3751C120.283 9.84215 121.349 9.57567 122.617 9.57567V12.0016H121.983C121.174 12.0016 120.43 12.1486 119.75 12.4426C119.07 12.7183 118.528 13.1961 118.123 13.8761C117.719 14.5561 117.517 15.4934 117.517 16.688V23.5798H115.201Z" fill="#065143"/>
<path d="M125.354 23.5798V4.28279H131.694C133.201 4.28279 134.442 4.53089 135.416 5.0271C136.39 5.52331 137.106 6.19411 137.566 7.0395C138.044 7.88489 138.283 8.84055 138.283 9.90647C138.283 10.954 138.053 11.9005 137.593 12.7459C137.134 13.5913 136.417 14.2713 135.443 14.7858C134.469 15.2821 133.219 15.5302 131.694 15.5302H127.669V23.5798H125.354ZM127.669 13.5729H131.639C133.183 13.5729 134.276 13.2513 134.919 12.608C135.581 11.9464 135.912 11.0459 135.912 9.90647C135.912 8.74866 135.581 7.84813 134.919 7.2049C134.276 6.54329 133.183 6.21248 131.639 6.21248H127.669V13.5729Z" fill="#065143"/>
<path d="M145.082 23.9106C143.943 23.9106 142.997 23.7176 142.243 23.3316C141.49 22.9457 140.929 22.4311 140.561 21.7879C140.194 21.1447 140.01 20.4463 140.01 19.6928C140.01 18.2961 140.543 17.2209 141.609 16.4674C142.675 15.7139 144.127 15.3372 145.965 15.3372H149.659V15.1718C149.659 13.9772 149.346 13.0767 148.721 12.4702C148.096 11.8454 147.26 11.5329 146.213 11.5329C145.312 11.5329 144.531 11.7627 143.869 12.2221C143.226 12.6632 142.822 13.3156 142.657 14.1794H140.286C140.378 13.187 140.708 12.3508 141.278 11.6708C141.866 10.9908 142.592 10.4762 143.456 10.127C144.32 9.75945 145.239 9.57567 146.213 9.57567C148.124 9.57567 149.557 10.0903 150.513 11.1194C151.487 12.1302 151.974 13.481 151.974 15.1718V23.5798H149.907L149.769 21.1263C149.383 21.8982 148.813 22.5598 148.06 23.1111C147.325 23.6441 146.332 23.9106 145.082 23.9106ZM145.441 21.9533C146.323 21.9533 147.076 21.7236 147.701 21.2641C148.345 20.8047 148.832 20.2074 149.162 19.4723C149.493 18.7371 149.659 17.9653 149.659 17.1566V17.1291H146.158C144.798 17.1291 143.833 17.368 143.263 17.8458C142.712 18.3052 142.436 18.8842 142.436 19.5825C142.436 20.2993 142.693 20.8782 143.208 21.3192C143.741 21.7419 144.485 21.9533 145.441 21.9533Z" fill="#065143"/>
<path d="M156.533 29.6445L159.924 22.2565H159.124L153.693 9.90647H156.202L160.723 20.5474L165.52 9.90647H167.918L158.959 29.6445H156.533Z" fill="#065143"/>
</g>
<defs>
<clipPath id="clip0_3480_4616">
<rect width="167.917" height="32" fill="white"/>
</clipPath>
</defs>
</svg>
