<svg width="190" height="32" viewBox="0 0 190 32" fill="none" xmlns="http://www.w3.org/2000/svg">
<path d="M14.5669 4.63771C15.0024 3.2282 16.9976 3.2282 17.4331 4.63772L19.7771 12.2229H27.5656C29.0004 12.2229 29.6163 14.0439 28.4761 14.9149L22.1115 19.7771L24.503 27.5162C24.9342 28.9116 23.3198 30.0376 22.1593 29.1511L16 24.4458L9.84075 29.1511C8.68021 30.0376 7.06584 28.9116 7.49702 27.5162L9.88854 19.7771L3.52385 14.9149C2.38368 14.0439 2.99964 12.2229 4.43444 12.2229H12.2229L14.5669 4.63771Z" fill="#FFE000"/>
<path d="M50.5669 4.63771C51.0024 3.2282 52.9976 3.2282 53.4331 4.63772L55.7771 12.2229H63.5656C65.0004 12.2229 65.6163 14.0439 64.4761 14.9149L58.1115 19.7771L60.503 27.5162C60.9342 28.9116 59.3198 30.0376 58.1593 29.1511L52 24.4458L45.8407 29.1511C44.6802 30.0376 43.0658 28.9116 43.497 27.5162L45.8885 19.7771L39.5239 14.9149C38.3837 14.0439 38.9996 12.2229 40.4344 12.2229H48.2229L50.5669 4.63771Z" fill="#FFE000"/>
<path d="M86.5669 4.63771C87.0024 3.2282 88.9976 3.2282 89.4331 4.63772L91.7771 12.2229H99.5656C101 12.2229 101.616 14.0439 100.476 14.9149L94.1115 19.7771L96.503 27.5162C96.9342 28.9116 95.3198 30.0376 94.1593 29.1511L88 24.4458L81.8407 29.1511C80.6802 30.0376 79.0658 28.9116 79.497 27.5162L81.8885 19.7771L75.5239 14.9149C74.3837 14.0439 74.9996 12.2229 76.4344 12.2229H84.2229L86.5669 4.63771Z" fill="#FFE000"/>
<path d="M122.567 4.63771C123.002 3.2282 124.998 3.2282 125.433 4.63772L127.777 12.2229H135.566C137 12.2229 137.616 14.0439 136.476 14.9149L130.111 19.7771L132.503 27.5162C132.934 28.9116 131.32 30.0376 130.159 29.1511L124 24.4458L117.841 29.1511C116.68 30.0376 115.066 28.9116 115.497 27.5162L117.889 19.7771L111.524 14.9149C110.384 14.0439 111 12.2229 112.434 12.2229H120.223L122.567 4.63771Z" fill="#FFE000"/>
<path d="M158.567 4.63771C159.002 3.2282 160.998 3.2282 161.433 4.63772L163.777 12.2229H171.566C173 12.2229 173.616 14.0439 172.476 14.9149L166.111 19.7771L168.503 27.5162C168.934 28.9116 167.32 30.0376 166.159 29.1511L160 24.4458L153.841 29.1511C152.68 30.0376 151.066 28.9116 151.497 27.5162L153.889 19.7771L147.524 14.9149C146.384 14.0439 147 12.2229 148.434 12.2229H156.223L158.567 4.63771Z" fill="#FFE000"/>
</svg>
